<mxfile host="app.diagrams.net" modified="2021-03-25T11:44:29.219Z" agent="5.0 (Macintosh; Intel Mac OS X 10_15_5) AppleWebKit/605.1.15 (KHTML, like Gecko) Version/13.1.1 Safari/605.1.15" etag="avk6Whsn9xuQg_Sy_LcS" version="14.4.8" type="github">
  <diagram id="rYhMgfwNKbTofmugoh7U" name="Page-1">
    <mxGraphModel dx="830" dy="588" grid="1" gridSize="10" guides="1" tooltips="1" connect="1" arrows="1" fold="1" page="1" pageScale="1" pageWidth="827" pageHeight="1169" background="none" math="0" shadow="0">
      <root>
        <mxCell id="0" />
        <mxCell id="1" parent="0" />
        <mxCell id="-3vk_c2Lp5YfWhD3Yw9H-14" value="" style="edgeStyle=orthogonalEdgeStyle;rounded=0;orthogonalLoop=1;jettySize=auto;html=1;dashed=1;startArrow=none;startFill=0;endArrow=none;endFill=0;strokeWidth=3;" edge="1" parent="1" source="-3vk_c2Lp5YfWhD3Yw9H-13" target="7d4OW412Z7Q2IF9BUur--16">
          <mxGeometry relative="1" as="geometry" />
        </mxCell>
        <mxCell id="-3vk_c2Lp5YfWhD3Yw9H-13" value="" style="rounded=0;whiteSpace=wrap;html=1;dashed=1;sketch=1;strokeWidth=2;strokeColor=#666666;fontColor=#333333;fillStyle=solid;fillColor=#F0F0F0;" vertex="1" parent="1">
          <mxGeometry x="549" y="20" width="241" height="350" as="geometry" />
        </mxCell>
        <mxCell id="7d4OW412Z7Q2IF9BUur--5" value="name" style="ellipse;whiteSpace=wrap;html=1;fillColor=#ffe6cc;strokeColor=#d79b00;sketch=1;" parent="1" vertex="1">
          <mxGeometry x="100" y="570" width="100" height="60" as="geometry" />
        </mxCell>
        <mxCell id="7d4OW412Z7Q2IF9BUur--6" value="status" style="ellipse;whiteSpace=wrap;html=1;fillColor=#ffe6cc;strokeColor=#d79b00;sketch=1;" parent="1" vertex="1">
          <mxGeometry x="361" y="570" width="100" height="60" as="geometry" />
        </mxCell>
        <mxCell id="7d4OW412Z7Q2IF9BUur--7" value="location" style="ellipse;whiteSpace=wrap;html=1;fillColor=#ffe6cc;strokeColor=#d79b00;sketch=1;" parent="1" vertex="1">
          <mxGeometry x="620" y="570" width="100" height="60" as="geometry" />
        </mxCell>
        <mxCell id="7d4OW412Z7Q2IF9BUur--8" value="status.FINAL" style="ellipse;whiteSpace=wrap;html=1;fillColor=#f8cecc;strokeColor=#b85450;sketch=1;" parent="1" vertex="1">
          <mxGeometry x="279" y="440" width="114" height="50" as="geometry" />
        </mxCell>
        <mxCell id="7d4OW412Z7Q2IF9BUur--9" value="status.UNKNOWN" style="ellipse;whiteSpace=wrap;html=1;fillColor=#f8cecc;strokeColor=#b85450;sketch=1;" parent="1" vertex="1">
          <mxGeometry x="439" y="440" width="110" height="50" as="geometry" />
        </mxCell>
        <mxCell id="7d4OW412Z7Q2IF9BUur--10" value="&lt;b&gt;source&lt;/b&gt;" style="ellipse;whiteSpace=wrap;html=1;sketch=1;fillColor=#d5e8d4;strokeColor=#82b366;strokeWidth=3;" parent="1" vertex="1">
          <mxGeometry x="364" y="30" width="100" height="60" as="geometry" />
        </mxCell>
        <mxCell id="7d4OW412Z7Q2IF9BUur--11" value="" style="endArrow=classic;html=1;entryX=0.5;entryY=1;entryDx=0;entryDy=0;exitX=0.78;exitY=0.033;exitDx=0;exitDy=0;exitPerimeter=0;sketch=1;" parent="1" source="7d4OW412Z7Q2IF9BUur--6" edge="1">
          <mxGeometry width="50" height="50" relative="1" as="geometry">
            <mxPoint x="497" y="560" as="sourcePoint" />
            <mxPoint x="492" y="490" as="targetPoint" />
          </mxGeometry>
        </mxCell>
        <mxCell id="7d4OW412Z7Q2IF9BUur--12" value="" style="endArrow=classic;html=1;entryX=0.5;entryY=1;entryDx=0;entryDy=0;exitX=0.23;exitY=0.033;exitDx=0;exitDy=0;exitPerimeter=0;sketch=1;" parent="1" source="7d4OW412Z7Q2IF9BUur--6" edge="1">
          <mxGeometry width="50" height="50" relative="1" as="geometry">
            <mxPoint x="337" y="540" as="sourcePoint" />
            <mxPoint x="334" y="490" as="targetPoint" />
          </mxGeometry>
        </mxCell>
        <mxCell id="7d4OW412Z7Q2IF9BUur--13" value="" style="endArrow=classic;html=1;exitX=0.5;exitY=0;exitDx=0;exitDy=0;sketch=1;entryX=0.5;entryY=1;entryDx=0;entryDy=0;" parent="1" source="7d4OW412Z7Q2IF9BUur--5" target="-3vk_c2Lp5YfWhD3Yw9H-1" edge="1">
          <mxGeometry width="50" height="50" relative="1" as="geometry">
            <mxPoint x="170" y="430" as="sourcePoint" />
            <mxPoint x="230" y="310" as="targetPoint" />
          </mxGeometry>
        </mxCell>
        <mxCell id="7d4OW412Z7Q2IF9BUur--15" value="" style="endArrow=classic;html=1;entryX=0.5;entryY=1;entryDx=0;entryDy=0;exitX=0.5;exitY=0;exitDx=0;exitDy=0;sketch=1;" parent="1" source="7d4OW412Z7Q2IF9BUur--7" target="7d4OW412Z7Q2IF9BUur--16" edge="1">
          <mxGeometry width="50" height="50" relative="1" as="geometry">
            <mxPoint x="670" y="470" as="sourcePoint" />
            <mxPoint x="730.7934255373093" y="387.4410270480985" as="targetPoint" />
          </mxGeometry>
        </mxCell>
        <mxCell id="7d4OW412Z7Q2IF9BUur--16" value="getLocation(source)" style="ellipse;whiteSpace=wrap;html=1;fillColor=#dae8fc;strokeColor=#6c8ebf;sketch=1;" parent="1" vertex="1">
          <mxGeometry x="609.5" y="430" width="120" height="50" as="geometry" />
        </mxCell>
        <mxCell id="7d4OW412Z7Q2IF9BUur--17" value="status" style="ellipse;whiteSpace=wrap;html=1;fillColor=#d5e8d4;strokeColor=#82b366;sketch=1;" parent="1" vertex="1">
          <mxGeometry x="361" y="300" width="100" height="60" as="geometry" />
        </mxCell>
        <mxCell id="7d4OW412Z7Q2IF9BUur--18" value="" style="endArrow=classic;html=1;sketch=1;entryX=0.5;entryY=1;entryDx=0;entryDy=0;" parent="1" source="7d4OW412Z7Q2IF9BUur--17" target="-3vk_c2Lp5YfWhD3Yw9H-3" edge="1">
          <mxGeometry width="50" height="50" relative="1" as="geometry">
            <mxPoint x="540" y="190" as="sourcePoint" />
            <mxPoint x="414" y="230" as="targetPoint" />
          </mxGeometry>
        </mxCell>
        <mxCell id="7d4OW412Z7Q2IF9BUur--20" value="" style="endArrow=classic;html=1;entryX=0;entryY=1;entryDx=0;entryDy=0;exitX=0.5;exitY=0;exitDx=0;exitDy=0;sketch=1;" parent="1" target="7d4OW412Z7Q2IF9BUur--17" edge="1">
          <mxGeometry width="50" height="50" relative="1" as="geometry">
            <mxPoint x="334" y="440" as="sourcePoint" />
            <mxPoint x="377" y="288.02" as="targetPoint" />
          </mxGeometry>
        </mxCell>
        <mxCell id="7d4OW412Z7Q2IF9BUur--21" value="" style="endArrow=classic;html=1;entryX=1;entryY=1;entryDx=0;entryDy=0;exitX=0.5;exitY=0;exitDx=0;exitDy=0;sketch=1;" parent="1" target="7d4OW412Z7Q2IF9BUur--17" edge="1">
          <mxGeometry width="50" height="50" relative="1" as="geometry">
            <mxPoint x="492" y="440" as="sourcePoint" />
            <mxPoint x="527" y="338.02" as="targetPoint" />
          </mxGeometry>
        </mxCell>
        <mxCell id="-3vk_c2Lp5YfWhD3Yw9H-1" value="source getName()" style="ellipse;whiteSpace=wrap;html=1;fillColor=#dae8fc;strokeColor=#6c8ebf;sketch=1;" vertex="1" parent="1">
          <mxGeometry x="100" y="170" width="100" height="60" as="geometry" />
        </mxCell>
        <mxCell id="-3vk_c2Lp5YfWhD3Yw9H-2" value="" style="endArrow=classic;html=1;exitX=1;exitY=0;exitDx=0;exitDy=0;sketch=1;entryX=0;entryY=1;entryDx=0;entryDy=0;" edge="1" parent="1" source="-3vk_c2Lp5YfWhD3Yw9H-1" target="7d4OW412Z7Q2IF9BUur--10">
          <mxGeometry width="50" height="50" relative="1" as="geometry">
            <mxPoint x="264" y="250" as="sourcePoint" />
            <mxPoint x="364" y="90" as="targetPoint" />
          </mxGeometry>
        </mxCell>
        <mxCell id="-3vk_c2Lp5YfWhD3Yw9H-3" value="&lt;span&gt;source getStatus()&lt;/span&gt;" style="ellipse;whiteSpace=wrap;html=1;fillColor=#dae8fc;strokeColor=#6c8ebf;sketch=1;" vertex="1" parent="1">
          <mxGeometry x="361" y="170" width="100" height="60" as="geometry" />
        </mxCell>
        <mxCell id="-3vk_c2Lp5YfWhD3Yw9H-4" value="" style="endArrow=classic;html=1;sketch=1;entryX=0.5;entryY=1;entryDx=0;entryDy=0;exitX=0.5;exitY=0;exitDx=0;exitDy=0;" edge="1" parent="1" source="-3vk_c2Lp5YfWhD3Yw9H-3" target="7d4OW412Z7Q2IF9BUur--10">
          <mxGeometry width="50" height="50" relative="1" as="geometry">
            <mxPoint x="420" y="130" as="sourcePoint" />
            <mxPoint x="420" y="60" as="targetPoint" />
          </mxGeometry>
        </mxCell>
        <mxCell id="-3vk_c2Lp5YfWhD3Yw9H-5" value="Return Value (getLocation)" style="ellipse;whiteSpace=wrap;html=1;fillColor=#e1d5e7;strokeColor=#9673a6;sketch=1;" vertex="1" parent="1">
          <mxGeometry x="610" y="300" width="120" height="50" as="geometry" />
        </mxCell>
        <mxCell id="-3vk_c2Lp5YfWhD3Yw9H-6" value="&lt;span&gt;source&lt;/span&gt;" style="ellipse;whiteSpace=wrap;html=1;sketch=1;fillColor=#d5e8d4;strokeColor=#82b366;strokeWidth=3;fontStyle=1" vertex="1" parent="1">
          <mxGeometry x="620" y="30" width="100" height="60" as="geometry" />
        </mxCell>
        <mxCell id="-3vk_c2Lp5YfWhD3Yw9H-7" value="" style="endArrow=classic;html=1;entryX=0.5;entryY=1;entryDx=0;entryDy=0;exitX=0.5;exitY=0;exitDx=0;exitDy=0;sketch=1;" edge="1" parent="1" source="7d4OW412Z7Q2IF9BUur--16" target="-3vk_c2Lp5YfWhD3Yw9H-5">
          <mxGeometry width="50" height="50" relative="1" as="geometry">
            <mxPoint x="660" y="390" as="sourcePoint" />
            <mxPoint x="660" y="300" as="targetPoint" />
          </mxGeometry>
        </mxCell>
        <mxCell id="-3vk_c2Lp5YfWhD3Yw9H-8" value="" style="endArrow=classic;html=1;exitX=0.5;exitY=0;exitDx=0;exitDy=0;sketch=1;" edge="1" parent="1" source="-3vk_c2Lp5YfWhD3Yw9H-5">
          <mxGeometry width="50" height="50" relative="1" as="geometry">
            <mxPoint x="650" y="220" as="sourcePoint" />
            <mxPoint x="670" y="230" as="targetPoint" />
          </mxGeometry>
        </mxCell>
        <mxCell id="-3vk_c2Lp5YfWhD3Yw9H-10" value="" style="endArrow=classic;html=1;sketch=1;entryX=0.5;entryY=1;entryDx=0;entryDy=0;" edge="1" parent="1" target="-3vk_c2Lp5YfWhD3Yw9H-6">
          <mxGeometry width="50" height="50" relative="1" as="geometry">
            <mxPoint x="670" y="170" as="sourcePoint" />
            <mxPoint x="660" y="50" as="targetPoint" />
          </mxGeometry>
        </mxCell>
        <mxCell id="-3vk_c2Lp5YfWhD3Yw9H-12" value="" style="endArrow=none;html=1;sketch=1;startArrow=none;startFill=0;endFill=0;dashed=1;strokeWidth=3;" edge="1" parent="1">
          <mxGeometry width="50" height="50" relative="1" as="geometry">
            <mxPoint x="670" y="220" as="sourcePoint" />
            <mxPoint x="670" y="180" as="targetPoint" />
          </mxGeometry>
        </mxCell>
        <mxCell id="-3vk_c2Lp5YfWhD3Yw9H-15" value="" style="endArrow=classic;html=1;sketch=1;entryX=1;entryY=0.5;entryDx=0;entryDy=0;exitX=0;exitY=0.5;exitDx=0;exitDy=0;" edge="1" parent="1" source="-3vk_c2Lp5YfWhD3Yw9H-6" target="7d4OW412Z7Q2IF9BUur--10">
          <mxGeometry width="50" height="50" relative="1" as="geometry">
            <mxPoint x="510" y="60" as="sourcePoint" />
            <mxPoint x="510" y="-20" as="targetPoint" />
          </mxGeometry>
        </mxCell>
      </root>
    </mxGraphModel>
  </diagram>
</mxfile>
